# Blender v2.78 (sub 0) OBJ File: ''
# www.blender.org
mtllib pipe2.mtl
o Cylinder
v 0.000000 0.000000 -1.000000
v 0.000000 2.000000 -1.000000
v 0.195090 2.000000 -0.980785
v 0.195090 0.000000 -0.980785
v 0.382683 2.000000 -0.923880
v 0.382683 0.000000 -0.923880
v 0.555570 2.000000 -0.831470
v 0.555570 0.000000 -0.831470
v 0.707107 2.000000 -0.707107
v 0.707107 0.000000 -0.707107
v 0.831470 2.000000 -0.555570
v 0.831470 0.000000 -0.555570
v 0.923880 2.000000 -0.382683
v 0.923880 0.000000 -0.382683
v 0.980785 2.000000 -0.195090
v 0.980785 0.000000 -0.195090
v 1.000000 2.000000 0.000000
v 1.000000 0.000000 -0.000000
v 0.980785 2.000000 0.195090
v 0.980785 0.000000 0.195090
v 0.923880 2.000000 0.382683
v 0.923880 -0.000000 0.382683
v 0.831470 2.000000 0.555570
v 0.831470 -0.000000 0.555570
v 0.707107 2.000000 0.707107
v 0.707107 -0.000000 0.707107
v 0.555570 2.000000 0.831470
v 0.555570 -0.000000 0.831470
v 0.382683 2.000000 0.923880
v 0.382683 -0.000000 0.923880
v 0.195090 2.000000 0.980785
v 0.195090 -0.000000 0.980785
v 0.000000 2.000000 1.000000
v 0.000000 -0.000000 1.000000
v -0.195091 -0.000000 0.980785
v -0.195091 2.000000 0.980785
v -0.382684 -0.000000 0.923879
v -0.382684 2.000000 0.923879
v -0.555571 -0.000000 0.831469
v -0.555571 2.000000 0.831469
v -0.707107 -0.000000 0.707106
v -0.707107 2.000000 0.707106
v -0.831470 -0.000000 0.555570
v -0.831470 2.000000 0.555570
v -0.923880 -0.000000 0.382683
v -0.923880 2.000000 0.382683
v -0.980785 0.000000 0.195089
v -0.980785 2.000000 0.195089
v -1.000000 0.000000 -0.000001
v -1.000000 2.000000 -0.000001
v -0.980785 0.000000 -0.195091
v -0.980785 2.000000 -0.195091
v -0.923879 0.000000 -0.382684
v -0.923879 2.000000 -0.382684
v -0.831469 0.000000 -0.555571
v -0.831469 2.000000 -0.555571
v -0.707106 0.000000 -0.707108
v -0.707106 2.000000 -0.707108
v -0.555569 0.000000 -0.831470
v -0.555569 2.000000 -0.831470
v -0.382682 0.000000 -0.923880
v -0.195089 0.000000 -0.980786
v -0.195089 2.000000 -0.980786
v -0.382682 2.000000 -0.923880
vt 0.2897 0.8794
vt 0.2884 0.4388
vt 0.3307 0.4387
vt 0.3321 0.8792
vt 0.3706 0.4386
vt 0.3720 0.8791
vt 0.4065 0.4385
vt 0.4079 0.8790
vt 0.4370 0.4384
vt 0.7789 0.0000
vt 0.7803 0.4405
vt 0.7497 0.4406
vt 0.7484 0.0001
vt 0.7138 0.4407
vt 0.7125 0.0002
vt 0.6739 0.4408
vt 0.6726 0.0003
vt 0.6316 0.4410
vt 0.6302 0.0005
vt 0.5884 0.4411
vt 0.5871 0.0006
vt 0.5461 0.4412
vt 0.5447 0.0007
vt 0.5062 0.4413
vt 0.5048 0.0008
vt 0.4703 0.4415
vt 0.4689 0.0010
vt 0.4397 0.4416
vt 0.7205 0.8829
vt 0.7192 0.4424
vt 0.7551 0.4423
vt 0.7564 0.8828
vt 0.7950 0.4422
vt 0.7963 0.8827
vt 0.8373 0.4420
vt 0.8387 0.8826
vt 0.8819 0.8824
vt 0.8805 0.4419
vt 0.9242 0.8823
vt 0.9229 0.4418
vt 0.9641 0.8822
vt 0.9627 0.4417
vt 1.0000 0.8821
vt 0.7178 0.4416
vt 0.7192 0.8821
vt 0.6819 0.4417
vt 0.6833 0.8822
vt 0.6421 0.4418
vt 0.6434 0.8823
vt 0.5997 0.4419
vt 0.6011 0.8824
vt 0.5565 0.4420
vt 0.5579 0.8826
vt 0.5142 0.4422
vt 0.5155 0.8827
vt 0.4743 0.4423
vt 0.4756 0.8828
vt 0.4384 0.4424
vt 0.0979 0.8799
vt 0.0965 0.4394
vt 0.1284 0.8798
vt 0.1271 0.4393
vt 0.1643 0.8797
vt 0.1630 0.4392
vt 0.2042 0.8796
vt 0.0000 0.1976
vt 0.0084 0.1553
vt 0.0000 0.2408
vt 0.2465 0.8795
vt 0.2452 0.4390
vt 0.2028 0.4391
vt 0.4384 0.8789
vt 0.4384 0.0010
vt 0.9986 0.4416
vt 0.4397 0.8829
vt 0.0249 0.1154
vt 0.0489 0.0795
vt 0.0795 0.0489
vt 0.1154 0.0249
vt 0.1553 0.0084
vt 0.1976 0.0000
vt 0.2408 0.0000
vt 0.2831 0.0084
vt 0.3230 0.0249
vt 0.3589 0.0489
vt 0.3895 0.0795
vt 0.4134 0.1154
vt 0.4300 0.1553
vt 0.4384 0.1976
vt 0.4384 0.2408
vt 0.4300 0.2831
vt 0.4134 0.3230
vt 0.3895 0.3589
vt 0.3589 0.3895
vt 0.3230 0.4134
vt 0.2831 0.4300
vt 0.2408 0.4384
vt 0.1976 0.4384
vt 0.1553 0.4300
vt 0.1154 0.4134
vt 0.0795 0.3895
vt 0.0489 0.3589
vt 0.0249 0.3230
vt 0.0084 0.2831
vn 0.0000 0.0000 -1.0000
vn 0.0000 0.6857 -0.7279
vn 0.1420 0.6857 -0.7139
vn 0.1951 0.0000 -0.9808
vn 0.2785 0.6857 -0.6725
vn 0.3827 0.0000 -0.9239
vn 0.4044 0.6857 -0.6052
vn 0.5556 0.0000 -0.8315
vn 0.5147 0.6857 -0.5147
vn 0.7071 0.0000 -0.7071
vn 0.6052 0.6857 -0.4044
vn 0.8315 0.0000 -0.5556
vn 0.6725 0.6857 -0.2785
vn 0.9239 0.0000 -0.3827
vn 0.7139 0.6857 -0.1420
vn 0.9808 0.0000 -0.1951
vn 0.7279 0.6857 -0.0000
vn 1.0000 0.0000 0.0000
vn 0.7139 0.6857 0.1420
vn 0.9808 -0.0000 0.1951
vn 0.6725 0.6857 0.2785
vn 0.9239 -0.0000 0.3827
vn 0.6052 0.6857 0.4044
vn 0.8315 -0.0000 0.5556
vn 0.5147 0.6857 0.5147
vn 0.7071 -0.0000 0.7071
vn 0.4044 0.6857 0.6052
vn 0.5556 -0.0000 0.8315
vn 0.2785 0.6857 0.6725
vn 0.3827 -0.0000 0.9239
vn 0.1420 0.6857 0.7139
vn 0.1951 -0.0000 0.9808
vn 0.0000 0.6857 0.7279
vn 0.0000 -0.0000 1.0000
vn -0.1951 -0.0000 0.9808
vn -0.1420 0.6857 0.7139
vn -0.3827 -0.0000 0.9239
vn -0.2786 0.6857 0.6725
vn -0.5556 -0.0000 0.8315
vn -0.4044 0.6857 0.6052
vn -0.7071 -0.0000 0.7071
vn -0.5147 0.6857 0.5147
vn -0.8315 -0.0000 0.5556
vn -0.6052 0.6857 0.4044
vn -0.9239 -0.0000 0.3827
vn -0.6725 0.6857 0.2785
vn -0.9808 -0.0000 0.1951
vn -0.7139 0.6857 0.1420
vn -1.0000 0.0000 0.0000
vn -0.7279 0.6857 -0.0000
vn -0.9808 0.0000 -0.1951
vn -0.7139 0.6857 -0.1420
vn -0.9239 0.0000 -0.3827
vn -0.6725 0.6857 -0.2786
vn -0.8315 0.0000 -0.5556
vn -0.6052 0.6857 -0.4044
vn -0.7071 0.0000 -0.7071
vn -0.5147 0.6857 -0.5147
vn -0.5556 0.0000 -0.8315
vn -0.4044 0.6857 -0.6052
vn -0.3827 0.0000 -0.9239
vn -0.1951 0.0000 -0.9808
vn -0.1420 0.6857 -0.7139
vn -0.2786 0.6857 -0.6725
usemtl None
s 1
f 1/1/1 2/2/2 3/3/3
f 4/4/4 3/3/3 5/5/5
f 6/6/6 5/5/5 7/7/7
f 8/8/8 7/7/7 9/9/9
f 10/10/10 9/11/9 11/12/11
f 12/13/12 11/12/11 13/14/13
f 14/15/14 13/14/13 15/16/15
f 16/17/16 15/16/15 17/18/17
f 18/19/18 17/18/17 19/20/19
f 20/21/20 19/20/19 21/22/21
f 22/23/22 21/22/21 23/24/23
f 24/25/24 23/24/23 25/26/25
f 26/27/26 25/26/25 27/28/27
f 28/29/28 27/30/27 29/31/29
f 30/32/30 29/31/29 31/33/31
f 32/34/32 31/33/31 33/35/33
f 34/36/34 33/35/33 35/37/35
f 35/37/35 36/38/36 37/39/37
f 37/39/37 38/40/38 39/41/39
f 39/41/39 40/42/40 41/43/41
f 41/44/41 42/45/42 43/46/43
f 43/46/43 44/47/44 45/48/45
f 45/48/45 46/49/46 47/50/47
f 47/50/47 48/51/48 49/52/49
f 49/52/49 50/53/50 51/54/51
f 51/54/51 52/55/52 53/56/53
f 53/56/53 54/57/54 55/58/55
f 55/59/55 56/60/56 57/61/57
f 57/61/57 58/62/58 59/63/59
f 59/63/59 60/64/60 61/65/61
f 3/66/3 2/67/2 5/68/5
f 62/69/62 63/70/63 1/1/1
f 61/65/61 64/71/64 62/69/62
f 4/4/4 1/1/1 3/3/3
f 6/6/6 4/4/4 5/5/5
f 8/8/8 6/6/6 7/7/7
f 10/72/10 8/8/8 9/9/9
f 12/13/12 10/10/10 11/12/11
f 14/15/14 12/13/12 13/14/13
f 16/17/16 14/15/14 15/16/15
f 18/19/18 16/17/16 17/18/17
f 20/21/20 18/19/18 19/20/19
f 22/23/22 20/21/20 21/22/21
f 24/25/24 22/23/22 23/24/23
f 26/27/26 24/25/24 25/26/25
f 28/73/28 26/27/26 27/28/27
f 30/32/30 28/29/28 29/31/29
f 32/34/32 30/32/30 31/33/31
f 34/36/34 32/34/32 33/35/33
f 33/35/33 36/38/36 35/37/35
f 36/38/36 38/40/38 37/39/37
f 38/40/38 40/42/40 39/41/39
f 40/42/40 42/74/42 41/43/41
f 42/45/42 44/47/44 43/46/43
f 44/47/44 46/49/46 45/48/45
f 46/49/46 48/51/48 47/50/47
f 48/51/48 50/53/50 49/52/49
f 50/53/50 52/55/52 51/54/51
f 52/55/52 54/57/54 53/56/53
f 54/57/54 56/75/56 55/58/55
f 56/60/56 58/62/58 57/61/57
f 58/62/58 60/64/60 59/63/59
f 60/64/60 64/71/64 61/65/61
f 2/67/2 63/76/63 5/68/5
f 63/76/63 64/77/64 5/68/5
f 64/77/64 60/78/60 5/68/5
f 60/78/60 58/79/58 5/68/5
f 58/79/58 56/80/56 5/68/5
f 56/80/56 54/81/54 5/68/5
f 54/81/54 52/82/52 5/68/5
f 52/82/52 50/83/50 5/68/5
f 50/83/50 48/84/48 5/68/5
f 48/84/48 46/85/46 5/68/5
f 46/85/46 44/86/44 5/68/5
f 44/86/44 42/87/42 5/68/5
f 42/87/42 40/88/40 5/68/5
f 40/88/40 38/89/38 5/68/5
f 38/89/38 36/90/36 5/68/5
f 36/90/36 33/91/33 5/68/5
f 33/91/33 31/92/31 5/68/5
f 31/92/31 29/93/29 5/68/5
f 29/93/29 27/94/27 5/68/5
f 27/94/27 25/95/25 5/68/5
f 25/95/25 23/96/23 5/68/5
f 23/96/23 21/97/21 5/68/5
f 21/97/21 19/98/19 5/68/5
f 19/98/19 17/99/17 5/68/5
f 17/99/17 15/100/15 5/68/5
f 15/100/15 13/101/13 5/68/5
f 13/101/13 11/102/11 5/68/5
f 11/102/11 9/103/9 7/104/7
f 5/68/5 11/102/11 7/104/7
f 63/70/63 2/2/2 1/1/1
f 64/71/64 63/70/63 62/69/62
